<?xml version="1.0" encoding="UTF-8" standalone="no"?>
<svg
   xmlns:dc="http://purl.org/dc/elements/1.1/"
   xmlns:cc="http://creativecommons.org/ns#"
   xmlns:rdf="http://www.w3.org/1999/02/22-rdf-syntax-ns#"
   xmlns:svg="http://www.w3.org/2000/svg"
   xmlns="http://www.w3.org/2000/svg"
   xmlns:xlink="http://www.w3.org/1999/xlink"
   xmlns:sodipodi="http://sodipodi.sourceforge.net/DTD/sodipodi-0.dtd"
   xmlns:inkscape="http://www.inkscape.org/namespaces/inkscape"
   version="1.1"
   id="Layer_1_1_"
   x="0px"
   y="0px"
   viewBox="2600 -200 699.99997 700"
   xml:space="preserve"
   inkscape:version="0.92.0 r15299"
   sodipodi:docname="hbo-max-logo.svg"
   width="700"
   height="700"
   inkscape:export-filename="C:\Users\suitedoalex\sites\hbo-max-logo-0.png"
   inkscape:export-xdpi="561.73712"
   inkscape:export-ydpi="561.73712"><metadata
     id="metadata3486"><rdf:RDF><cc:Work
         rdf:about=""><dc:format>image/svg+xml</dc:format><dc:type
           rdf:resource="http://purl.org/dc/dcmitype/StillImage" /><dc:title></dc:title></cc:Work></rdf:RDF></metadata><defs
     id="defs3484" /><sodipodi:namedview
     pagecolor="#ffffff"
     bordercolor="#666666"
     borderopacity="1"
     objecttolerance="10"
     gridtolerance="10"
     guidetolerance="10"
     inkscape:pageopacity="0"
     inkscape:pageshadow="2"
     inkscape:window-width="1920"
     inkscape:window-height="1017"
     id="namedview3482"
     showgrid="false"
     fit-margin-top="0"
     fit-margin-left="0"
     fit-margin-right="0"
     fit-margin-bottom="0"
     inkscape:zoom="0.9011588"
     inkscape:cx="205.44112"
     inkscape:cy="366.90449"
     inkscape:window-x="-8"
     inkscape:window-y="-8"
     inkscape:window-maximized="1"
     inkscape:current-layer="g52"
     inkscape:document-rotation="0" /><style
     type="text/css"
     id="style3439">
	.st0{fill:url(#XMLID_5_);}
	.st1{clip-path:url(#XMLID_6_);fill:url(#SVGID_1_);}
	.st2{clip-path:url(#XMLID_6_);fill:url(#SVGID_2_);}
	.st3{clip-path:url(#XMLID_6_);fill:url(#SVGID_3_);}
</style><linearGradient
     id="XMLID_5_"
     gradientUnits="userSpaceOnUse"
     x1="3080.6379"
     y1="-104.7449"
     x2="3700"
     y2="-104.7449"
     gradientTransform="translate(0,0.1)"><stop
       offset="0"
       style="stop-color:#991EEB"
       id="stop3444" /><stop
       offset="0.399"
       style="stop-color:#5822B4"
       id="stop3446" /><stop
       offset="0.727"
       style="stop-color:#5822B4"
       id="stop3448" /><stop
       offset="1"
       style="stop-color:#991EEB"
       id="stop3450" /></linearGradient><g
     id="g52"
     transform="matrix(0.52606902,0,0,0.52606902,1319.186,209.63866)"><path
       d="m 2715.229,-25.648376 h -47.0615 v -67.111408 h -30.4462 v 67.111408 h -48.2682 V -198.76425 h 48.1754 v 64.60517 h 30.4462 v -64.60517 h 47.0615 v 173.115874 z m 215.7219,0.742588 c 48.1754,0 87.5325,-40.099763 87.5325,-88.924942 0,-49.56776 -39.3571,-87.90387 -87.5325,-87.90387 -48.8252,0 -73.5163,35.45858 -79.457,49.93905 0,-21.44223 -21.4422,-47.06153 -46.3189,-47.06153 h -80.3852 v 173.208704 h 74.8157 c 30.4462,0 51.8884,-25.990586 51.8884,-48.825173 6.7761,14.109175 30.7246,49.567761 79.457,49.567761 z m -137.2861,-70.360231 c 6.9618,0 12.5312,6.776116 12.5312,14.48047 0,8.075646 -5.5694,14.851764 -12.5312,14.851764 h -23.9484 v -29.332234 z m 0,-64.976471 c 6.9618,0 12.5312,6.77612 12.5312,14.48046 0,7.70436 -5.5694,14.48048 -12.5312,14.48048 h -23.9484 v -28.96094 z m 31.6529,46.41176 c 5.5694,-0.3713 14.6661,-6.77612 18.1005,-10.58188 -1.2995,4.64118 -1.2995,19.30729 0,23.94848 -3.8057,-5.66225 -12.5311,-12.34554 -18.1005,-13.3666 z m 61.7276,0 c 0,-24.41258 19.8642,-44.09118 44.2769,-43.99835 24.5054,0.18565 43.9983,20.1427 43.7198,44.64812 -0.3712,24.134117 -19.8642,43.534234 -43.9983,43.534234 -24.3198,0 -43.9984,-19.678588 -43.9984,-44.184004 z m 43.9056,34.716004 c 18.7503,0 34.5303,-15.408705 34.5303,-34.716004 0,-19.30729 -15.78,-34.53035 -34.5303,-34.53035 -19.3074,0 -34.7161,15.22306 -34.7161,34.53035 0,19.307299 15.4087,34.716004 34.7161,34.716004 z"
       id="path3441"
       inkscape:connector-curvature="0"
       style="stroke-width:0.92823559"
       inkscape:export-filename="C:\Users\suitedoalex\sites\hbo-max-logo-4.png"
       inkscape:export-xdpi="71.486298"
       inkscape:export-ydpi="71.486298" /><g
       id="g888"
       transform="matrix(0.92823525,0,0,0.92823525,176.04149,-16.180377)"
       inkscape:export-filename="C:\Users\suitedoalex\sites\hbo-max-logo-4.png"
       inkscape:export-xdpi="71.486298"
       inkscape:export-ydpi="71.486298"><path
         id="XMLID_1_"
         class="st0"
         d="m 3333.2,-130.7 c -1,-45.2 -33,-69.1 -72.2,-69.1 -21.5,0 -40.9,7.2 -54.1,21.2 -13.2,-14 -32.6,-21.2 -54.1,-21.2 -39.2,0 -71.2,24 -72.2,69.2 0,0.1 0,0.2 0,0.3 v 103.1 c 0,9.5 7.7,17.1 17.1,17.1 h 16.2 c 1.6,0 2.9,-1.3 2.9,-2.9 v -117.4 0 c 0.7,-22.3 16.5,-34.1 36,-34.1 19.5,0 35.3,11.8 36,34.1 v 0 103.1 c 0,9.5 7.7,17.1 17.1,17.1 h 16.2 c 1.6,0 2.9,-1.3 2.9,-2.9 v -117.4 0 c 0.7,-22.3 16.5,-34.1 36,-34.1 19.5,0 35.3,11.8 36,34.1 v 0 103.1 c 0,9.5 7.7,17.1 17.1,17.1 h 16.2 c 1.6,0 2.9,-1.3 2.9,-2.9 v -117.4 c 0.1,0.1 0,0 0,-0.1 z m 364.7,-66.2 h -27.5 c -7.6,0 -14.7,3.8 -19,10.1 l -30.4,45 c -4,5.9 -12.6,5.9 -16.6,0 l -30.4,-45 c -4.2,-6.3 -11.4,-10.1 -19,-10.1 h -27.5 c -1.7,0 -2.7,1.9 -1.8,3.3 l 54.2,80.4 c 3.9,5.8 3.9,13.4 0,19.2 l -54.2,80.4 c -1,1.4 0.1,3.3 1.8,3.3 h 27.5 c 7.6,0 14.7,-3.8 19,-10.1 l 30.4,-45 c 4,-5.9 12.6,-5.9 16.6,0 l 30.4,45 c 4.2,6.3 11.4,10.1 19,10.1 h 27.5 c 1.7,0 2.7,-1.9 1.8,-3.3 l -54.3,-80.3 c -3.9,-5.8 -3.9,-13.4 0,-19.2 l 54.2,-80.4 c 1,-1.4 0,-3.4 -1.7,-3.4 z m -184.6,0 h -16.2 c -8.2,0 -15.1,5.8 -16.8,13.5 -14.4,-11 -32.5,-16.6 -52,-16.6 -47.4,0 -85.9,33 -85.9,95.3 0,62.3 38.4,95.3 85.9,95.3 19.4,0 37.3,-5.5 51.7,-16.3 0.8,8.7 8.1,15.6 17.1,15.6 h 16.2 c 1.6,0 2.9,-1.3 2.9,-2.9 v -181 c -0.1,-1.6 -1.3,-2.9 -2.9,-2.9 z m -85,152.1 c -28.3,0 -51.3,-20.7 -51.3,-59.8 0,-39.1 23,-59.8 51.3,-59.8 28.3,0 51.3,20.7 51.3,59.8 0,39.1 -23,59.8 -51.3,59.8 z"
         inkscape:connector-curvature="0"
         style="fill:url(#XMLID_5_)" /><g
         id="g3453"
         transform="translate(0,0.1)"><defs
           id="defs3455"><path
             id="XMLID_2_"
             d="m 3333.2,-130.8 c -1,-45.2 -33,-69.1 -72.2,-69.1 -21.5,0 -40.9,7.2 -54.1,21.2 -13.2,-14 -32.6,-21.2 -54.1,-21.2 -39.2,0 -71.2,24 -72.2,69.2 0,0.1 0,0.2 0,0.3 v 103.1 c 0,9.5 7.7,17.1 17.1,17.1 h 16.2 c 1.6,0 2.9,-1.3 2.9,-2.9 v -117.4 0 c 0.7,-22.3 16.5,-34.1 36,-34.1 19.5,0 35.3,11.8 36,34.1 v 0 103.1 c 0,9.5 7.7,17.1 17.1,17.1 h 16.2 c 1.6,0 2.9,-1.3 2.9,-2.9 v -117.4 0 c 0.7,-22.3 16.5,-34.1 36,-34.1 19.5,0 35.3,11.8 36,34.1 v 0 103.1 c 0,9.5 7.7,17.1 17.1,17.1 h 16.2 c 1.6,0 2.9,-1.3 2.9,-2.9 v -117.4 c 0.1,0.1 0,0 0,-0.1 z m 364.7,-66.2 h -27.5 c -7.6,0 -14.7,3.8 -19,10.1 l -30.4,45 c -4,5.9 -12.6,5.9 -16.6,0 l -30.4,-45 c -4.2,-6.3 -11.4,-10.1 -19,-10.1 h -27.5 c -1.7,0 -2.7,1.9 -1.8,3.3 l 54.2,80.4 c 3.9,5.8 3.9,13.4 0,19.2 l -54.2,80.4 c -1,1.4 0.1,3.3 1.8,3.3 h 27.5 c 7.6,0 14.7,-3.8 19,-10.1 l 30.4,-45 c 4,-5.9 12.6,-5.9 16.6,0 l 30.4,45 c 4.2,6.3 11.4,10.1 19,10.1 h 27.5 c 1.7,0 2.7,-1.9 1.8,-3.3 L 3645.4,-94 c -3.9,-5.8 -3.9,-13.4 0,-19.2 l 54.2,-80.4 c 1,-1.4 0,-3.4 -1.7,-3.4 z m -184.6,0 h -16.2 c -8.2,0 -15.1,5.8 -16.8,13.5 -14.4,-11 -32.5,-16.6 -52,-16.6 -47.4,0 -85.9,33 -85.9,95.3 0,62.3 38.4,95.3 85.9,95.3 19.4,0 37.3,-5.5 51.7,-16.3 0.8,8.7 8.1,15.6 17.1,15.6 h 16.2 c 1.6,0 2.9,-1.3 2.9,-2.9 v -181 c -0.1,-1.6 -1.3,-2.9 -2.9,-2.9 z m -85,152.1 c -28.3,0 -51.3,-20.7 -51.3,-59.8 0,-39.1 23,-59.8 51.3,-59.8 28.3,0 51.3,20.7 51.3,59.8 0,39.1 -23,59.8 -51.3,59.8 z"
             inkscape:connector-curvature="0" /></defs><clipPath
           id="XMLID_6_"><use
             xlink:href="#XMLID_2_"
             style="overflow:visible"
             id="use3459"
             x="0"
             y="0"
             width="100%"
             height="100%" /></clipPath><radialGradient
           id="SVGID_1_"
           cx="1494.3917"
           cy="-276.44141"
           r="164.5752"
           gradientTransform="matrix(0.672,0,0,0.8748,2225.512,101.9935)"
           gradientUnits="userSpaceOnUse"><stop
             offset="0"
             style="stop-color:#7BA7F2;stop-opacity:0.5"
             id="stop3462" /><stop
             offset="1"
             style="stop-color:#7BA7F2;stop-opacity:0"
             id="stop3464" /></radialGradient><ellipse
           class="st1"
           cx="3229.7"
           cy="-139.8"
           rx="110.6"
           ry="144"
           id="ellipse3466"
           clip-path="url(#XMLID_6_)"
           style="fill:url(#SVGID_1_)" /><radialGradient
           id="SVGID_2_"
           cx="3339.8582"
           cy="-386.74179"
           r="227.5584"
           gradientTransform="matrix(1,0,0,0.7081,0,254.0226)"
           gradientUnits="userSpaceOnUse"><stop
             offset="0.2"
             style="stop-color:#7BA7F2"
             id="stop3469" /><stop
             offset="1"
             style="stop-color:#7BA7F2;stop-opacity:0"
             id="stop3471" /></radialGradient><ellipse
           class="st2"
           cx="3339.8999"
           cy="-19.799999"
           rx="227.60001"
           ry="161.10001"
           id="ellipse3473"
           clip-path="url(#XMLID_6_)"
           style="fill:url(#SVGID_2_)" /><radialGradient
           id="SVGID_3_"
           cx="3479.5854"
           cy="-189.1615"
           r="123.7732"
           gradientUnits="userSpaceOnUse"><stop
             offset="0"
             style="stop-color:#7BA7F2"
             id="stop3476" /><stop
             offset="1"
             style="stop-color:#7BA7F2;stop-opacity:0"
             id="stop3478" /></radialGradient><circle
           class="st3"
           cx="3479.6001"
           cy="-189.2"
           r="123.8"
           id="circle3480"
           clip-path="url(#XMLID_6_)"
           style="fill:url(#SVGID_3_)" /></g></g></g></svg>