<?xml version="1.0" encoding="utf-8"?>
<!-- Generator: Adobe Illustrator 19.0.0, SVG Export Plug-In . SVG Version: 6.00 Build 0)  -->
<svg version="1.1" id="Layer_1" xmlns="http://www.w3.org/2000/svg" xmlns:xlink="http://www.w3.org/1999/xlink" x="0px" y="0px"
	 viewBox="0 0 320 170" style="enable-background:new 0 0 320 170;" xml:space="preserve">
<style type="text/css">
	.st0{fill:#1DB57C;}
</style>
<g id="XMLID_1_">
	<path id="XMLID_2_" class="st0" d="M184.3,120.6h17.2V49.4h-17.2V120.6z M154.1,100.3c0,2.5-2.1,4.6-4.6,4.6h-10
		c-2.5,0-4.6-2.1-4.6-4.6c0-1,0-28.7,0-28.7h-17.2v30.1c0,12.3,7.9,18.8,19.5,18.8h16.8c10.7,0,17.2-7.7,17.2-18.8V71.6h-17.2
		C154.1,71.6,154.1,99.4,154.1,100.3z M250.8,71.6c0,0,0,27.8,0,28.7c0,2.5-2.1,4.6-4.6,4.6h-10c-2.5,0-4.6-2.1-4.6-4.6
		c0-1,0-28.7,0-28.7h-17.2v30.1c0,12.3,7.9,18.8,19.5,18.8h16.8c10.7,0,17.2-7.7,17.2-18.8V71.6H250.8z M86,71.6c0,0-8.9,0-11,0
		c-3.9,0-5.8,1-5.8,1V49.4H52v71.1h17.1V91.9c0-2.5,2.1-4.6,4.6-4.6h10c2.5,0,4.6,2.1,4.6,4.6v28.7h17.2V89.6
		C105.5,76.6,96.8,71.6,86,71.6z"/>
</g>
</svg>
