<?xml version="1.0" encoding="UTF-8" standalone="no"?>
<!-- Generator: Adobe Illustrator 19.2.1, SVG Export Plug-In . SVG Version: 6.00 Build 0)  -->

<svg
   xmlns:dc="http://purl.org/dc/elements/1.1/"
   xmlns:cc="http://creativecommons.org/ns#"
   xmlns:rdf="http://www.w3.org/1999/02/22-rdf-syntax-ns#"
   xmlns:svg="http://www.w3.org/2000/svg"
   xmlns="http://www.w3.org/2000/svg"
   xmlns:sodipodi="http://sodipodi.sourceforge.net/DTD/sodipodi-0.dtd"
   xmlns:inkscape="http://www.inkscape.org/namespaces/inkscape"
   version="1.1"
   id="layer"
   x="0px"
   y="0px"
   viewBox="0 0 700 700"
   xml:space="preserve"
   sodipodi:docname="starzplay-logo.svg"
   width="700"
   height="700"
   inkscape:export-filename="C:\Users\alex\sites\starzplay-logo-0.png"
   inkscape:export-xdpi="561.73712"
   inkscape:export-ydpi="561.73712"
   inkscape:version="0.92.3 (2405546, 2018-03-11)"><metadata
   id="metadata9"><rdf:RDF><cc:Work
       rdf:about=""><dc:format>image/svg+xml</dc:format><dc:type
         rdf:resource="http://purl.org/dc/dcmitype/StillImage" /><dc:title></dc:title></cc:Work></rdf:RDF></metadata><defs
   id="defs7" /><sodipodi:namedview
   pagecolor="#ffffff"
   bordercolor="#666666"
   borderopacity="1"
   objecttolerance="10"
   gridtolerance="10"
   guidetolerance="10"
   inkscape:pageopacity="0"
   inkscape:pageshadow="2"
   inkscape:window-width="1600"
   inkscape:window-height="838"
   id="namedview5"
   showgrid="false"
   inkscape:zoom="0.51189325"
   inkscape:cx="70.100168"
   inkscape:cy="443.00931"
   inkscape:window-x="-8"
   inkscape:window-y="-8"
   inkscape:window-maximized="1"
   inkscape:current-layer="layer" />
<path
   d="m 209.69707,362.21428 9.31051,-18.62102 9.31051,18.62102 z m -29.03773,25.62695 h 16.13208 l 5.89972,-11.79946 h 32.72506 l 5.89973,11.79946 H 257.448 L 219.19195,311.9744 Z m 13.82749,-75.59028 h -60.10348 v 13.73531 h 22.30835 v 61.76279 h 15.3946 v -61.76279 h 22.40053 z m 93.01292,33.18598 h -11.06199 v -19.35849 h 11.06199 c 8.20431,0 12.72129,3.41078 12.72129,9.67925 0,6.26846 -4.60916,9.67924 -12.72129,9.67924 m 28.30026,-10.04798 c 0,-6.63719 -2.30458,-12.35256 -7.00593,-16.5008 -4.60916,-4.33262 -11.43072,-6.6372 -19.35848,-6.6372 h -28.48463 v 75.4981 h 15.3946 v -27.5628 h 10.87763 l 15.9477,27.5628 h 17.51482 l -17.88355,-31.34231 c 11.33854,-5.07008 12.99784,-15.48679 12.99784,-21.01779 m 74.02316,-23.138 H 327.4151 v 13.73531 h 35.58274 l -38.62479,61.76279 h 64.62047 v -13.73531 h -37.9795 z m -282.5417,30.78921 c -12.352562,-2.85768 -16.777359,-4.97789 -16.777359,-10.69326 0,-4.79353 4.51698,-7.83557 10.877629,-7.83557 10.04797,0 18.98975,7.00592 21.4787,8.94177 l 6.45283,-13.09002 c -8.01995,-6.0841 -17.14609,-9.31051 -27.74717,-9.31051 -15.394603,0 -26.272228,9.12614 -26.272228,22.40053 0,14.47278 9.31051,19.54286 25.442578,23.23019 13.45876,3.04204 15.94771,5.71536 15.94771,10.23234 0,5.16226 -4.60916,8.38868 -11.98383,8.38868 -8.941773,0 -16.316434,-3.41078 -24.889478,-11.24636 L 73.54239,377.5167 c 8.75741,7.55903 19.542852,11.43073 30.78921,11.43073 16.68517,0 27.37843,-8.94178 27.37843,-23.23018 -0.0922,-11.70728 -7.00593,-18.34447 -24.42856,-22.67709 m 293.88024,-30.78921 h 24.88949 c 13.27439,0 22.86145,8.20431 22.86145,22.0318 0,13.82749 -9.86361,22.21617 -22.86145,22.21617 h -20.18814 v 31.34231 h -4.60916 z m 24.52075,39.91536 c 11.062,0 18.43666,-6.6372 18.43666,-17.88356 0,-11.24636 -7.37466,-17.69918 -18.43666,-17.69918 h -20.09595 v 35.58274 z m 39.36226,-39.91536 h 4.60916 v 71.25767 h 35.95147 v 4.33261 h -40.65282 v -75.59028 z m 91.90671,49.41023 h -31.98759 l -9.86361,26.08787 h -4.9779 l 28.30027,-75.4981 h 4.97789 l 28.30027,75.4981 h -4.9779 c -0.0922,0.0922 -9.77143,-26.08787 -9.77143,-26.08787 z m -16.03989,-43.97141 c 0,0 -1.56711,5.89972 -2.85768,9.12614 l -11.61509,30.60484 h 28.85336 l -11.24635,-30.60484 c -1.29057,-3.22642 -2.85769,-9.12614 -2.85769,-9.12614 0,0 -0.27655,0 -0.27655,0 z m 55.49433,37.33422 -25.81131,-42.77304 h 5.34663 l 17.88355,29.68301 c 2.12021,3.77952 4.60916,8.57305 4.60916,8.57305 h 0.18437 c 0,0 2.30458,-4.79353 4.60916,-8.57305 l 17.88356,-29.68301 h 5.34662 l -25.44258,42.77304 v 32.72506 h -4.60916 z"
   id="path2"
   inkscape:connector-curvature="0"
   style="stroke-width:0.92183268"
   inkscape:export-filename="C:\Users\alex\sites\starzplay-logo-4.png"
   inkscape:export-xdpi="69.450073"
   inkscape:export-ydpi="69.450073" />
</svg>